<?xml version="1.0" encoding="utf-8"?>
<!-- Generator: Adobe Illustrator 15.0.2, SVG Export Plug-In . SVG Version: 6.00 Build 0)  -->
<!DOCTYPE svg PUBLIC "-//W3C//DTD SVG 1.1//EN" "http://www.w3.org/Graphics/SVG/1.1/DTD/svg11.dtd">
<svg version="1.1" id="Layer_1" xmlns="http://www.w3.org/2000/svg" xmlns:xlink="http://www.w3.org/1999/xlink" x="0px" y="0px"
	 width="552px" height="490px" viewBox="0 0 552 490" enable-background="new 0 0 552 490" xml:space="preserve">
<polygon fill="#00446B" points="336.336,366.99 369.201,366.99 369.201,344.618 349.828,344.618 349.771,311.581 391.285,239.624 
	410.658,239.624 410.658,217.31 345.504,217.31 345.561,239.566 364.762,239.566 336.336,286.701 307.911,239.566 327.111,239.566 
	327.168,217.31 262.016,217.31 262.016,239.624 281.388,239.624 322.903,311.581 322.844,344.618 303.471,344.618 303.471,366.99 
	"/>
<path fill="none" d="M256.031,207H268H256.031z"/>
<path d="M274.667,239.969"/>
<path fill="#504099" d="M268,207"/>
<path fill="none" d="M238.031,203H250H238.031z"/>
<path d="M256.667,235.969"/>
<path fill="#504099" d="M250,203"/>
</svg>
