<?xml version="1.0" encoding="utf-8"?>
<!-- Generator: Adobe Illustrator 16.0.0, SVG Export Plug-In . SVG Version: 6.00 Build 0)  -->
<!DOCTYPE svg PUBLIC "-//W3C//DTD SVG 1.1//EN" "http://www.w3.org/Graphics/SVG/1.1/DTD/svg11.dtd">
<svg version="1.1" id="Layer_1" xmlns="http://www.w3.org/2000/svg" xmlns:xlink="http://www.w3.org/1999/xlink" x="0px" y="0px"
	 width="68.457px" height="68.457px" viewBox="0 0 68.457 68.457" enable-background="new 0 0 68.457 68.457" xml:space="preserve">
<path fill="#FFFFFF" d="M34.525,68.428c-18.357,0-33.292-14.936-33.292-33.292c0-18.356,14.935-33.291,33.292-33.291
	c18.356,0,33.291,14.935,33.291,33.291C67.816,53.494,52.881,68.428,34.525,68.428z"/>
<path fill="#0A4E94" stroke="#0A4E94" stroke-miterlimit="10" d="M28.552,45.735c-1.167,0-1.922-0.943-1.922-2.403V24.901
	c0-1.46,0.754-2.404,1.922-2.404c0.465,0,0.96,0.15,1.47,0.445l15.962,9.215c0.885,0.511,1.373,1.208,1.373,1.959
	s-0.486,1.447-1.373,1.958l-15.961,9.216C29.512,45.585,29.017,45.735,28.552,45.735z"/>
</svg>
